# xmcd
#
# Track frame offsets:
#	150
#	10865
#	24360
#	35875
#	47919
#	62494
#	76024
#	88061
#	101956
#	116992
#	130965
#	147486
#	163046
#	173794
#	187254
#	204323
#	217793
#	230766
#	242186
#	254813
#	267701
#	278590
#	292996
#
# Disc length: 4046 seconds
#
# Revision: 0
# Processed by: cddbd v1.4PL0 Copyright (c) Steve Scherf et al.
# Submitted via: EasyCDDAExtractor 4.6.9.1
#
DISCID=610fcc17
DTITLE=Marcel Martel - Chante Pour Vous
DYEAR=1900
DGENRE=
TTITLE0=TracLettres and Souvenirk 1
TTITLE1=Ne Ris Pas De Mon Coeur
TTITLE2=La Belle Gaspesie
TTITLE3=Valse Dans Tes Bras
TTITLE4=Cueiilir Vos Levres
TTITLE5=Prisinniere De Mon Coeur
TTITLE6=Ce Soir Nous Allon Feter
TTITLE7=Bonsoir Mon Amour
TTITLE8=J'ai Mon Soleil
TTITLE9=La Chaine De Mon Coeur
TTITLE10=Pour Un Baiser
TTITLE11=Mon Village Mes Amours
TTITLE12=Chez-Moi Dans Ma Vallee
TTITLE13=Des Fleurs A Ton Anniversaire
TTITLE14=Grand-Pere N'aime Pas La Musique
TTITLE15=Ciel Du Manitoba
TTITLE16=Dix Ans Passer
TTITLE17=Tu Me Disait Souvent Je T'Aime
TTITLE18=Aller Retour
TTITLE19=Adieu Mauvaise Reverie
TTITLE20=J'ai Mon Soleil
TTITLE21=De Ville En Villages
TTITLE22=Mon Meillieur Ami
EXTD=
EXTT0=
EXTT1=
EXTT2=
EXTT3=
EXTT4=
EXTT5=
EXTT6=
EXTT7=
EXTT8=
EXTT9=
EXTT10=
EXTT11=
EXTT12=
EXTT13=
EXTT14=
EXTT15=
EXTT16=
EXTT17=
EXTT18=
EXTT19=
EXTT20=
EXTT21=
EXTT22=
PLAYORDER=
